<svg aria-hidden="true" style="position: absolute; width: 0; height: 0; overflow: hidden;" version="1.1"
    xmlns="http://www.w3.org/2000/svg" xmlns:xlink="http://www.w3.org/1999/xlink">
    <defs>
        <symbol id="logout" viewBox="0 0 32 32">
            <path stroke-linejoin="round" stroke-linecap="round" stroke-miterlimit="4" stroke-width="1.3333"
                d="M21 12v-5c0-0.796-0.316-1.559-0.879-2.121s-1.326-0.879-2.121-0.879h-8c-0.796 0-1.559 0.316-2.121 0.879s-0.879 1.326-0.879 2.121v18c0 0.796 0.316 1.559 0.879 2.121s1.326 0.879 2.121 0.879h8c0.796 0 1.559-0.316 2.121-0.879s0.879-1.326 0.879-2.121v-5M25 20l4-4M29 16l-4-4M29 16h-17">
            </path>
        </symbol>
        <symbol id="upload" viewBox="0 0 32 32">
            <path stroke-linejoin="round" stroke-linecap="round" stroke-miterlimit="4" stroke-width="1.3333"
                d="M4 22v3c0 0.796 0.316 1.559 0.879 2.121s1.326 0.879 2.121 0.879h18c0.796 0 1.559-0.316 2.121-0.879s0.879-1.326 0.879-2.121v-3M10 10l6-6M16 4l6 6M16 4v18">
            </path>
        </symbol>
        <symbol id="calendar" viewBox="0 0 32 32">
            <path fill="none" stroke-linejoin="round" stroke-linecap="round" stroke-miterlimit="4" stroke-width="1.6"
                d="M9 4v3M23 4v3M4 25v-15c0-0.796 0.316-1.559 0.879-2.121s1.326-0.879 2.121-0.879h18c0.796 0 1.559 0.316 2.121 0.879s0.879 1.326 0.879 2.121v15M4 25c0 0.796 0.316 1.559 0.879 2.121s1.326 0.879 2.121 0.879h18c0.796 0 1.559-0.316 2.121-0.879s0.879-1.326 0.879-2.121M4 25v-10c0-0.796 0.316-1.559 0.879-2.121s1.326-0.879 2.121-0.879h18c0.796 0 1.559 0.316 2.121 0.879s0.879 1.326 0.879 2.121v10M16 17h0.011v0.011h-0.011v-0.011zM16 20h0.011v0.011h-0.011v-0.011zM16 23h0.011v0.011h-0.011v-0.011zM13 20h0.011v0.011h-0.011v-0.011zM13 23h0.011v0.011h-0.011v-0.011zM10 20h0.011v0.011h-0.011v-0.011zM10 23h0.011v0.011h-0.011v-0.011zM19 17h0.011v0.011h-0.011v-0.011zM19 20h0.011v0.011h-0.011v-0.011zM19 23h0.011v0.011h-0.011v-0.011zM22 17h0.011v0.011h-0.011v-0.011zM22 20h0.011v0.011h-0.011v-0.011z">
            </path>
        </symbol>
        <symbol id="arrow-down" viewBox="0 0 32 32">
            <path
                d="M16.706 21.707c-0.187 0.187-0.442 0.293-0.707 0.293s-0.519-0.105-0.707-0.293l-10-10c-0.177-0.19-0.273-0.44-0.268-0.699s0.11-0.506 0.293-0.689c0.183-0.183 0.43-0.288 0.689-0.293s0.51 0.092 0.699 0.268l9.293 9.293 9.293-9.293c0.092-0.098 0.202-0.177 0.325-0.232s0.255-0.084 0.389-0.086c0.134-0.002 0.268 0.022 0.392 0.073s0.238 0.125 0.333 0.22 0.17 0.208 0.22 0.333c0.050 0.125 0.075 0.258 0.073 0.392s-0.032 0.267-0.086 0.389-0.133 0.233-0.232 0.325l-10 10z">
            </path>
        </symbol>
        <symbol id="settings" viewBox="0 0 32 32">
            <path stroke-linejoin="round" stroke-linecap="round" stroke-miterlimit="4" stroke-width="1.3333"
                d="M12.792 5.253c0.12-0.723 0.747-1.253 1.48-1.253h3.457c0.733 0 1.36 0.531 1.48 1.253l0.284 1.708c0.084 0.499 0.417 0.915 0.86 1.16 0.099 0.053 0.196 0.111 0.293 0.169 0.432 0.261 0.96 0.343 1.433 0.165l1.623-0.608c0.333-0.125 0.699-0.128 1.033-0.008s0.616 0.354 0.793 0.662l1.728 2.996c0.177 0.308 0.24 0.668 0.177 1.018s-0.249 0.665-0.523 0.89l-1.337 1.103c-0.391 0.32-0.584 0.817-0.575 1.323 0.002 0.113 0.002 0.227 0 0.34-0.009 0.504 0.184 1 0.573 1.32l1.34 1.104c0.565 0.467 0.712 1.272 0.347 1.907l-1.731 2.996c-0.177 0.307-0.458 0.542-0.793 0.662s-0.7 0.117-1.033-0.007l-1.623-0.608c-0.473-0.177-1-0.096-1.435 0.165-0.097 0.059-0.194 0.116-0.293 0.171-0.441 0.244-0.775 0.66-0.859 1.159l-0.284 1.707c-0.12 0.724-0.747 1.255-1.48 1.255h-3.459c-0.733 0-1.36-0.531-1.48-1.253l-0.284-1.708c-0.083-0.499-0.416-0.915-0.859-1.16-0.099-0.055-0.197-0.111-0.293-0.169-0.433-0.261-0.96-0.343-1.435-0.165l-1.623 0.608c-0.332 0.125-0.698 0.127-1.032 0.008s-0.615-0.354-0.793-0.661l-1.729-2.996c-0.177-0.308-0.24-0.668-0.176-1.018s0.249-0.665 0.523-0.89l1.339-1.103c0.389-0.32 0.583-0.817 0.573-1.323-0.002-0.113-0.002-0.227 0-0.34 0.009-0.504-0.184-1-0.573-1.32l-1.339-1.104c-0.274-0.225-0.459-0.541-0.523-0.89s-0.001-0.709 0.176-1.017l1.729-2.996c0.178-0.308 0.459-0.543 0.793-0.662s0.701-0.117 1.033 0.008l1.621 0.608c0.475 0.177 1.001 0.096 1.435-0.165 0.096-0.059 0.195-0.116 0.293-0.171 0.443-0.244 0.776-0.66 0.859-1.159l0.285-1.708z">
            </path>
            <path stroke-linejoin="round" stroke-linecap="round" stroke-miterlimit="4" stroke-width="1.3333"
                d="M20 16c0 1.061-0.421 2.078-1.172 2.828s-1.768 1.172-2.828 1.172c-1.061 0-2.078-0.421-2.828-1.172s-1.172-1.768-1.172-2.828c0-1.061 0.421-2.078 1.172-2.828s1.768-1.172 2.828-1.172c1.061 0 2.078 0.421 2.828 1.172s1.172 1.768 1.172 2.828z">
            </path>
        </symbol>
        <symbol id="eye" viewBox="0 0 32 32">
            <path stroke-linejoin="round" stroke-linecap="round" stroke-miterlimit="4" stroke-width="1.3333"
                d="M2.715 16.429c-0.092-0.277-0.092-0.575 0-0.852 1.849-5.564 7.099-9.577 13.285-9.577 6.184 0 11.431 4.009 13.284 9.571 0.093 0.276 0.093 0.575 0 0.852-1.848 5.564-7.097 9.577-13.284 9.577-6.184 0-11.432-4.009-13.285-9.571z">
            </path>
            <path stroke-linejoin="round" stroke-linecap="round" stroke-miterlimit="4" stroke-width="1.3333"
                d="M20 16c0 1.061-0.421 2.078-1.172 2.828s-1.768 1.172-2.828 1.172c-1.061 0-2.078-0.421-2.828-1.172s-1.172-1.768-1.172-2.828c0-1.061 0.421-2.078 1.172-2.828s1.768-1.172 2.828-1.172c1.061 0 2.078 0.421 2.828 1.172s1.172 1.768 1.172 2.828z">
            </path>
        </symbol>
        <symbol id="hidden" viewBox="0 0 32 32">
            <path stroke-linejoin="round" stroke-linecap="round" stroke-miterlimit="4" stroke-width="1.3333"
                d="M5.307 10.964c-1.247 1.472-2.176 3.187-2.728 5.036 1.723 5.784 7.080 10 13.421 10 1.324 0 2.604-0.184 3.817-0.527M8.304 8.304c2.284-1.507 4.96-2.308 7.696-2.304 6.341 0 11.697 4.216 13.42 9.997-0.944 3.159-2.971 5.885-5.724 7.699M8.304 8.304l-4.304-4.304M8.304 8.304l4.867 4.867M23.696 23.696l4.304 4.304M23.696 23.696l-4.867-4.867c0.371-0.371 0.666-0.812 0.867-1.298s0.304-1.005 0.304-1.531-0.103-1.045-0.304-1.531c-0.201-0.485-0.496-0.926-0.867-1.298s-0.813-0.666-1.298-0.867c-0.485-0.201-1.005-0.304-1.531-0.304s-1.046 0.103-1.531 0.305c-0.485 0.201-0.926 0.496-1.298 0.867M18.828 18.828l-5.655-5.655">
            </path>
        </symbol>
        <symbol id="minus" viewBox="0 0 32 32">
            <path
                d="M7 16c0-0.265 0.105-0.52 0.293-0.707s0.442-0.293 0.707-0.293h16c0.265 0 0.52 0.105 0.707 0.293s0.293 0.442 0.293 0.707-0.105 0.52-0.293 0.707c-0.187 0.188-0.442 0.293-0.707 0.293h-16c-0.265 0-0.52-0.105-0.707-0.293s-0.293-0.442-0.293-0.707z">
            </path>
        </symbol>
        <symbol id="note" viewBox="0 0 32 32">
            <path stroke-linejoin="round" stroke-linecap="round" stroke-miterlimit="4" stroke-width="1.3333"
                d="M22.483 5.983l2.249-2.251c0.469-0.469 1.105-0.732 1.768-0.732s1.299 0.263 1.768 0.732c0.469 0.469 0.732 1.105 0.732 1.768s-0.263 1.299-0.732 1.768l-14.159 14.159c-0.705 0.705-1.574 1.222-2.529 1.507l-3.58 1.067 1.067-3.58c0.284-0.955 0.802-1.824 1.507-2.529l11.909-11.908zM22.483 5.983l3.517 3.517M24 18.667v6.333c0 0.796-0.316 1.559-0.879 2.121s-1.326 0.879-2.121 0.879h-14c-0.796 0-1.559-0.316-2.121-0.879s-0.879-1.326-0.879-2.121v-14c0-0.796 0.316-1.559 0.879-2.121s1.326-0.879 2.121-0.879h6.333">
            </path>
        </symbol>
        <symbol id="add" viewBox="0 0 32 32">
            <path stroke-linejoin="round" stroke-linecap="round" stroke-miterlimit="4" stroke-width="1.3333"
                d="M16 12v8M20 16h-8M28 16c0 1.576-0.31 3.136-0.913 4.592s-1.487 2.779-2.601 3.893c-1.114 1.114-2.437 1.998-3.893 2.601s-3.016 0.913-4.592 0.913-3.136-0.31-4.592-0.913c-1.456-0.603-2.779-1.487-3.893-2.601s-1.998-2.437-2.601-3.893c-0.603-1.456-0.913-3.016-0.913-4.592 0-3.183 1.264-6.235 3.515-8.485s5.303-3.515 8.485-3.515c3.183 0 6.235 1.264 8.485 3.515s3.515 5.303 3.515 8.485z">
            </path>
        </symbol>
        <symbol id="plus" viewBox="0 0 32 32">
            <path stroke-linejoin="round" stroke-linecap="round" stroke-miterlimit="4" stroke-width="1.3333"
                d="M16 8v16M24 16h-16"></path>
        </symbol>
        <symbol id="graphic" viewBox="0 0 32 32">
            <path fill="none" stroke-linejoin="round" stroke-linecap="round" stroke-miterlimit="4" stroke-width="1.6"
                d="M5 4v15c0 0.796 0.316 1.559 0.879 2.121s1.326 0.879 2.121 0.879h3M5 4h-2M5 4h22M11 22h10M11 22l-1.333 4M27 4h2M27 4v15c0 0.796-0.316 1.559-0.879 2.121s-1.326 0.879-2.121 0.879h-3M21 22l1.333 4M9.667 26h12.667M9.667 26l-0.667 2M22.333 26l0.667 2M12 15v2M16 12v5M20 9v8">
            </path>
        </symbol>
        <symbol id="remove" viewBox="0 0 32 32">
            <path stroke-linejoin="round" stroke-linecap="round" stroke-miterlimit="4" stroke-width="1.3333"
                d="M19.653 12l-0.461 12M12.808 24l-0.461-12M25.637 7.72c0.456 0.069 0.909 0.143 1.363 0.221M25.637 7.72l-1.424 18.511c-0.058 0.754-0.399 1.458-0.953 1.971s-1.283 0.799-2.039 0.798h-10.443c-0.756 0-1.484-0.285-2.039-0.798s-0.895-1.217-0.953-1.971l-1.424-18.511M25.637 7.72c-1.539-0.233-3.086-0.409-4.637-0.529M6.363 7.72c-0.456 0.068-0.909 0.141-1.363 0.22M6.363 7.72c1.539-0.233 3.086-0.409 4.637-0.529M21 7.191v-1.221c0-1.573-1.213-2.885-2.787-2.935-1.475-0.047-2.951-0.047-4.427 0-1.573 0.049-2.787 1.363-2.787 2.935v1.221M21 7.191c-3.328-0.257-6.672-0.257-10 0">
            </path>
        </symbol>
        <symbol id="user" viewBox="0 0 32 32">
            <path stroke-linejoin="miter" stroke-linecap="butt" stroke-miterlimit="4" stroke-width="1.3333"
                d="M31.333 16c0 8.468-6.865 15.333-15.333 15.333s-15.333-6.865-15.333-15.333c0-8.468 6.865-15.333 15.333-15.333s15.333 6.865 15.333 15.333z">
            </path>
            <path stroke-linejoin="round" stroke-linecap="round" stroke-miterlimit="4" stroke-width="1.3333"
                d="M20.001 9.436c0 1.088-0.421 2.132-1.172 2.901s-1.768 1.202-2.829 1.202c-1.061 0-2.079-0.432-2.829-1.202s-1.172-1.813-1.172-2.901c0-1.088 0.421-2.132 1.172-2.901s1.768-1.202 2.829-1.202c1.061 0 2.079 0.432 2.829 1.202s1.172 1.813 1.172 2.901zM8 24.881c0.034-2.153 0.892-4.205 2.389-5.715s3.512-2.356 5.611-2.356c2.099 0 4.115 0.846 5.611 2.356s2.355 3.562 2.389 5.715c-2.51 1.18-5.239 1.789-8 1.785-2.855 0-5.564-0.639-8-1.785z">
            </path>
        </symbol>
        <symbol id="tools" viewBox="0 0 32 32">
            <path fill="none" stroke-linejoin="round" stroke-linecap="round" stroke-miterlimit="4" stroke-width="1.6"
                d="M15.227 20.227l7.773 7.773c0.667 0.645 1.56 1.003 2.488 0.995s1.816-0.379 2.472-1.036c0.656-0.656 1.028-1.544 1.036-2.472s-0.35-1.821-0.995-2.488l-7.836-7.836M15.227 20.227l3.328-4.040c0.423-0.512 0.987-0.835 1.611-1.021 0.733-0.219 1.551-0.251 2.324-0.187 1.042 0.090 2.090-0.095 3.039-0.536s1.766-1.121 2.371-1.975 0.975-1.851 1.076-2.893c0.1-1.041-0.074-2.091-0.504-3.045l-4.368 4.369c-0.731-0.169-1.399-0.54-1.93-1.070s-0.901-1.199-1.070-1.93l4.368-4.368c-0.954-0.431-2.003-0.605-3.044-0.504s-2.039 0.471-2.893 1.076-1.535 1.422-1.975 2.371c-0.44 0.949-0.625 1.997-0.536 3.039 0.121 1.435-0.095 3.019-1.205 3.933l-0.136 0.113M15.227 20.227l-6.207 7.537c-0.301 0.367-0.675 0.666-1.099 0.88s-0.887 0.336-1.361 0.359c-0.474 0.023-0.947-0.053-1.39-0.224s-0.844-0.432-1.18-0.767-0.597-0.737-0.767-1.18c-0.171-0.442-0.247-0.916-0.223-1.39s0.146-0.937 0.359-1.361c0.213-0.424 0.513-0.798 0.88-1.099l9.116-7.507-5.476-5.476h-1.879l-3-5 2-2 5 3v1.879l5.68 5.68-2.327 1.916M24.5 24.5l-3.5-3.5M6.489 25.5h0.011v0.011h-0.011v-0.011z">
            </path>
        </symbol>
        <symbol id="arrow-left" viewBox="0 0 32 32">
            <path
                d="M9.706 10.293c0.187 0.188 0.292 0.442 0.292 0.707s-0.105 0.519-0.292 0.707l-3.293 3.293h21.587c0.265 0 0.52 0.105 0.707 0.293s0.293 0.442 0.293 0.707c0 0.265-0.105 0.519-0.293 0.707s-0.442 0.293-0.707 0.293h-21.587l3.293 3.293c0.098 0.091 0.177 0.202 0.232 0.325s0.084 0.255 0.086 0.389c0.002 0.134-0.022 0.268-0.073 0.392s-0.125 0.238-0.22 0.333-0.208 0.17-0.333 0.22c-0.125 0.050-0.258 0.075-0.392 0.073s-0.267-0.032-0.389-0.086-0.233-0.133-0.325-0.232l-5-5c-0.187-0.188-0.292-0.442-0.292-0.707s0.105-0.519 0.292-0.707l5-5c0.188-0.187 0.442-0.292 0.707-0.292s0.519 0.105 0.707 0.292z">
            </path>
        </symbol>
        <symbol id="Ellipse" viewBox="0 0 32 32">
            <path d="M32 16c0 8.837-7.163 16-16 16s-16-7.163-16-16c0-8.837 7.163-16 16-16s16 7.163 16 16z"></path>
        </symbol>
         <symbol id="Logout" viewBox="0 0 16 16" fill="none">
            <path d="M10.5 6V3.5C10.5 3.10218 10.342 2.72064 10.0607 2.43934C9.77936 2.15804 9.39782 2 9 2H5C4.60218 2 4.22064 2.15804 3.93934 2.43934C3.65804 2.72064 3.5 3.10218 3.5 3.5V12.5C3.5 12.8978 3.65804 13.2794 3.93934 13.5607C4.22064 13.842 4.60218 14 5 14H9C9.39782 14 9.77936 13.842 10.0607 13.5607C10.342 13.2794 10.5 12.8978 10.5 12.5V10M12.5 10L14.5 8M14.5 8L12.5 6M14.5 8H6" stroke="#407BFF" stroke-linecap="round" stroke-linejoin="round"/>
        </symbol>
        <symbol id='Upload-photo' viewBox='0 0 16 16' fill='none'>
        <path d="M2 11V12.5C2 12.8978 2.15804 13.2794 2.43934 13.5607C2.72064 13.842 3.10218 14 3.5 14H12.5C12.8978 14 13.2794 13.842 13.5607 13.5607C13.842 13.2794 14 12.8978 14 12.5V11M5 5L8 2M8 2L11 5M8 2V11" stroke="#407BFF" stroke-linecap="round" stroke-linejoin="round"/>
        <symbol>
         <symbol id="Setting" viewBox="0 0 16 16" fill="none">
            <path d="M6.39597 2.62667C6.45597 2.26533 6.76931 2 7.13597 2H8.86464C9.23131 2 9.54464 2.26533 9.60464 2.62667L9.74664 3.48067C9.78864 3.73 9.95531 3.938 10.1766 4.06067C10.226 4.08733 10.2746 4.116 10.3233 4.14533C10.5393 4.276 10.8033 4.31667 11.04 4.228L11.8513 3.924C12.0176 3.86147 12.2006 3.85999 12.3679 3.91981C12.5352 3.97963 12.6757 4.09688 12.7646 4.25067L13.6286 5.74867C13.7173 5.90247 13.7486 6.08275 13.7169 6.25744C13.6851 6.43213 13.5924 6.5899 13.4553 6.70267L12.7866 7.254C12.5913 7.414 12.4946 7.66267 12.4993 7.91533C12.5004 7.972 12.5004 8.02867 12.4993 8.08533C12.4946 8.33733 12.5913 8.58533 12.786 8.74533L13.456 9.29733C13.7386 9.53067 13.812 9.93333 13.6293 10.2507L12.764 11.7487C12.6752 11.9024 12.5348 12.0197 12.3676 12.0796C12.2005 12.1396 12.0176 12.1383 11.8513 12.076L11.04 11.772C10.8033 11.6833 10.54 11.724 10.3226 11.8547C10.2743 11.8841 10.2254 11.9125 10.176 11.94C9.95531 12.062 9.78864 12.27 9.74664 12.5193L9.60464 13.3727C9.54464 13.7347 9.23131 14 8.86464 14H7.13531C6.76864 14 6.45531 13.7347 6.39531 13.3733L6.25331 12.5193C6.21197 12.27 6.04531 12.062 5.82397 11.9393C5.77454 11.9121 5.72564 11.8838 5.67731 11.8547C5.46064 11.724 5.19731 11.6833 4.95997 11.772L4.14864 12.076C3.98246 12.1383 3.79955 12.1397 3.63244 12.0799C3.46533 12.0201 3.32485 11.903 3.23597 11.7493L2.37131 10.2513C2.2826 10.0975 2.25134 9.91725 2.28308 9.74256C2.31482 9.56787 2.4075 9.4101 2.54464 9.29733L3.21397 8.746C3.40864 8.586 3.50531 8.33733 3.50064 8.08467C3.4996 8.028 3.4996 7.97133 3.50064 7.91467C3.50531 7.66267 3.40864 7.41467 3.21397 7.25467L2.54464 6.70267C2.40767 6.58993 2.31509 6.43229 2.28336 6.25775C2.25162 6.08321 2.28278 5.90307 2.37131 5.74933L3.23597 4.25133C3.32477 4.09742 3.46532 3.98004 3.63258 3.92009C3.79985 3.86014 3.98297 3.86153 4.14931 3.924L4.95997 4.228C5.19731 4.31667 5.46064 4.276 5.67731 4.14533C5.72531 4.116 5.77464 4.08733 5.82397 4.06C6.04531 3.938 6.21197 3.73 6.25331 3.48067L6.39597 2.62667Z" stroke="#407BFF" stroke-linecap="round" stroke-linejoin="round"/>
            <path d="M10 8C10 8.53043 9.78929 9.03914 9.41421 9.41421C9.03914 9.78929 8.53043 10 8 10C7.46957 10 6.96086 9.78929 6.58579 9.41421C6.21071 9.03914 6 8.53043 6 8C6 7.46957 6.21071 6.96086 6.58579 6.58579C6.96086 6.21071 7.46957 6 8 6C8.53043 6 9.03914 6.21071 9.41421 6.58579C9.78929 6.96086 10 7.46957 10 8Z" stroke="#407BFF" stroke-linecap="round" stroke-linejoin="round"/>
        </symbol>
        <symbol id="Chevron" viewBox="0 0 16 16" fill="none">
            <path fill-rule="evenodd" clip-rule="evenodd" d="M8.35331 10.8534C8.25956 10.947 8.13248 10.9996 7.99998 10.9996C7.86748 10.9996 7.7404 10.947 7.64665 10.8534L2.64665 5.85335C2.55833 5.75857 2.51024 5.63321 2.51253 5.50367C2.51481 5.37414 2.56729 5.25055 2.6589 5.15894C2.75051 5.06733 2.8741 5.01486 3.00363 5.01257C3.13316 5.01029 3.25853 5.05837 3.35331 5.14669L7.99998 9.79335L12.6466 5.14669C12.6924 5.09756 12.7476 5.05816 12.809 5.03083C12.8703 5.00351 12.9365 4.98881 13.0036 4.98763C13.0708 4.98644 13.1375 4.99879 13.1997 5.02394C13.262 5.04909 13.3185 5.08652 13.366 5.134C13.4135 5.18147 13.4509 5.23803 13.4761 5.30029C13.5012 5.36255 13.5136 5.42923 13.5124 5.49637C13.5112 5.5635 13.4965 5.62971 13.4692 5.69105C13.4418 5.75238 13.4024 5.80758 13.3533 5.85335L8.35331 10.8534Z" fill="#407BFF"/>
        </symbol>
        <symbol id="logout-outline" viewBox="0 0 24 24" fill="none">
        <path d="M6 18L18 6M6 6L18 18" stroke="#407BFF" stroke-width="1.5" stroke-linecap="round" stroke-linejoin="round"/>
        </symbol>
        <symbol id="glass" viewBox="0 0 32 32">
            <path
                d="M0.260986 0.130432L2.39972 29.7888V29.8696H20.8122L22.9509 0.222754V0.130432H0.260986ZM20.0557 29.0387H3.16193L1.55788 6.82376H2.43954L3.89002 26.4017C3.89851 26.5048 3.94461 26.601 4.0193 26.6714C4.09399 26.7418 4.1919 26.7815 4.29387 26.7826H4.328C4.38108 26.7789 4.43293 26.7646 4.48056 26.7406C4.52819 26.7165 4.57067 26.6832 4.60556 26.6424C4.64044 26.6017 4.66704 26.5544 4.68384 26.5031C4.70063 26.4519 4.70729 26.3979 4.70342 26.344L3.25294 6.82376H21.6597L20.0557 29.0387ZM21.7166 5.99286H3.19037L2.87184 1.66528C2.86183 1.5597 2.81293 1.46184 2.7349 1.39125C2.65687 1.32065 2.55546 1.28251 2.45092 1.28445C2.34378 1.29473 2.24477 1.34679 2.17474 1.42968C2.1047 1.51256 2.06913 1.61978 2.0755 1.72875L2.39404 5.99863H1.501L1.13696 0.955557H22.0807L21.7166 5.99286Z"
                fill="#407BFF" />
            <path
                d="M6.77965 10.9321C7.04516 10.9321 7.3047 10.8522 7.52545 10.7026C7.74621 10.553 7.91827 10.3403 8.01987 10.0914C8.12147 9.84262 8.14806 9.56882 8.09626 9.30467C8.04446 9.04052 7.91661 8.79788 7.72887 8.60743C7.54114 8.41699 7.30194 8.2873 7.04154 8.23475C6.78114 8.18221 6.51123 8.20918 6.26594 8.31224C6.02065 8.41531 5.811 8.58985 5.66349 8.81379C5.51599 9.03773 5.43726 9.30101 5.43726 9.57033C5.43726 9.93149 5.57869 10.2779 5.83044 10.5332C6.08218 10.7886 6.42363 10.9321 6.77965 10.9321ZM6.77965 9.03371C6.88428 9.03371 6.98656 9.06519 7.07355 9.12415C7.16054 9.18311 7.22835 9.26692 7.26838 9.36498C7.30842 9.46303 7.3189 9.57093 7.29849 9.67502C7.27808 9.77912 7.22769 9.87473 7.15371 9.94978C7.07973 10.0248 6.98547 10.0759 6.88286 10.0966C6.78024 10.1173 6.67388 10.1067 6.57722 10.0661C6.48056 10.0255 6.39794 9.95671 6.33981 9.86846C6.28168 9.78022 6.25066 9.67647 6.25066 9.57033C6.25066 9.42801 6.30639 9.29152 6.4056 9.19089C6.5048 9.09025 6.63936 9.03371 6.77965 9.03371Z"
                fill="#407BFF" />
            <path
                d="M6.77379 15.3577C6.77716 15.6265 6.85889 15.8883 7.00868 16.1101C7.15847 16.3319 7.36962 16.5037 7.61552 16.6039C7.86142 16.7042 8.13106 16.7284 8.39048 16.6734C8.64989 16.6185 8.88747 16.4868 9.07328 16.2952C9.25908 16.1035 9.3848 15.8603 9.43458 15.5962C9.48437 15.3322 9.45599 15.0591 9.35304 14.8114C9.25008 14.5637 9.07715 14.3524 8.85603 14.2042C8.63492 14.056 8.37551 13.9776 8.1105 13.9787C7.93325 13.9794 7.7579 14.0158 7.59457 14.0856C7.43124 14.1555 7.28316 14.2575 7.15889 14.3857C7.03461 14.5139 6.9366 14.6658 6.8705 14.8326C6.8044 14.9995 6.77154 15.1779 6.77379 15.3577ZM8.6395 15.3577C8.6395 15.4639 8.60847 15.5676 8.55035 15.6559C8.49222 15.7441 8.4096 15.8129 8.31294 15.8535C8.21628 15.8941 8.10991 15.9047 8.0073 15.884C7.90468 15.8633 7.81043 15.8122 7.73644 15.7372C7.66246 15.6621 7.61208 15.5665 7.59167 15.4624C7.57126 15.3583 7.58173 15.2504 7.62177 15.1524C7.66181 15.0543 7.72961 14.9705 7.81661 14.9116C7.9036 14.8526 8.00588 14.8211 8.1105 14.8211C8.2508 14.8211 8.38535 14.8777 8.48456 14.9783C8.58376 15.0789 8.6395 15.2154 8.6395 15.3577Z"
                fill="#407BFF" />
            <path
                d="M16.3129 15.3924C16.5784 15.3924 16.8379 15.3125 17.0587 15.1629C17.2794 15.0132 17.4515 14.8006 17.5531 14.5517C17.6547 14.3029 17.6813 14.0291 17.6295 13.765C17.5777 13.5008 17.4498 13.2582 17.2621 13.0677C17.0743 12.8773 16.8351 12.7476 16.5747 12.6951C16.3143 12.6425 16.0444 12.6695 15.7991 12.7725C15.5539 12.8756 15.3442 13.0501 15.1967 13.2741C15.0492 13.498 14.9705 13.7613 14.9705 14.0306C14.9705 14.3918 15.1119 14.7382 15.3636 14.9935C15.6154 15.2489 15.9568 15.3924 16.3129 15.3924ZM16.3129 13.4998C16.4177 13.4998 16.5202 13.5314 16.6073 13.5906C16.6944 13.6499 16.7622 13.734 16.8021 13.8324C16.842 13.9308 16.8521 14.039 16.8312 14.1432C16.8104 14.2475 16.7594 14.3431 16.6849 14.4179C16.6103 14.4927 16.5155 14.5434 16.4125 14.5634C16.3095 14.5835 16.203 14.572 16.1064 14.5305C16.0099 14.489 15.9277 14.4193 15.8702 14.3303C15.8128 14.2413 15.7827 14.137 15.7839 14.0306C15.7854 13.8893 15.8418 13.7543 15.9408 13.6549C16.0398 13.5555 16.1735 13.4998 16.3129 13.4998Z"
                fill="#407BFF" />
            <path
                d="M11.6373 12.8247C11.9028 12.8247 12.1624 12.7448 12.3831 12.5952C12.6039 12.4455 12.7759 12.2329 12.8775 11.984C12.9791 11.7352 13.0057 11.4614 12.9539 11.1972C12.9021 10.9331 12.7743 10.6905 12.5865 10.5C12.3988 10.3096 12.1596 10.1799 11.8992 10.1273C11.6388 10.0748 11.3689 10.1018 11.1236 10.2048C10.8783 10.3079 10.6687 10.4824 10.5212 10.7064C10.3737 10.9303 10.2949 11.1936 10.2949 11.4629C10.2949 11.8241 10.4364 12.1704 10.6881 12.4258C10.9399 12.6812 11.2813 12.8247 11.6373 12.8247ZM11.6373 10.9263C11.7419 10.9263 11.8442 10.9578 11.9312 11.0167C12.0182 11.0757 12.086 11.1595 12.126 11.2576C12.1661 11.3556 12.1766 11.4635 12.1562 11.5676C12.1357 11.6717 12.0854 11.7673 12.0114 11.8424C11.9374 11.9174 11.8431 11.9685 11.7405 11.9892C11.6379 12.0099 11.5315 11.9993 11.4349 11.9587C11.3382 11.9181 11.2556 11.8493 11.1975 11.761C11.1394 11.6728 11.1083 11.569 11.1083 11.4629C11.1045 11.3901 11.1153 11.3172 11.1401 11.2487C11.165 11.1802 11.2033 11.1176 11.2528 11.0647C11.3024 11.0117 11.362 10.9696 11.4281 10.9409C11.4942 10.9121 11.5654 10.8973 11.6373 10.8974V10.9263Z"
                fill="#407BFF" />
            <path
                d="M9.07764 20.5451C9.08323 20.7663 9.15301 20.9809 9.27824 21.1621C9.40346 21.3433 9.57859 21.483 9.78169 21.5638C9.9848 21.6446 10.2069 21.6628 10.4201 21.6161C10.6334 21.5695 10.8283 21.4602 10.9806 21.3017C11.1329 21.1433 11.2358 20.9428 11.2763 20.7253C11.3169 20.5079 11.2933 20.2832 11.2086 20.0792C11.1239 19.8753 10.9817 19.7013 10.8 19.5789C10.6183 19.4564 10.405 19.3911 10.1868 19.3911C9.89006 19.3986 9.60796 19.5235 9.40072 19.7391C9.19349 19.9547 9.07754 20.2439 9.07764 20.5451ZM10.1868 20.245C10.2453 20.245 10.3025 20.2626 10.3512 20.2956C10.3998 20.3286 10.4377 20.3754 10.4601 20.4302C10.4825 20.4851 10.4883 20.5454 10.4769 20.6036C10.4655 20.6618 10.4373 20.7153 10.396 20.7572C10.3546 20.7992 10.3019 20.8278 10.2445 20.8394C10.1872 20.8509 10.1277 20.845 10.0736 20.8223C10.0196 20.7996 9.97339 20.7611 9.94089 20.7118C9.90839 20.6624 9.89104 20.6044 9.89104 20.5451C9.89104 20.4655 9.9222 20.3892 9.97767 20.3329C10.0331 20.2766 10.1084 20.245 10.1868 20.245Z"
                fill="#407BFF" />
            <path
                d="M14.4414 19.2929C14.6691 19.301 14.894 19.2394 15.0868 19.1163C15.2797 18.9932 15.4317 18.8142 15.523 18.6024C15.6144 18.3907 15.641 18.1559 15.5994 17.9287C15.5577 17.7014 15.4497 17.4921 15.2894 17.3278C15.1292 17.1635 14.9239 17.0519 14.7003 17.0073C14.4767 16.9627 14.2451 16.9872 14.0354 17.0777C13.8258 17.1682 13.6477 17.3205 13.5244 17.5149C13.401 17.7092 13.338 17.9367 13.3436 18.1678C13.3507 18.4619 13.4683 18.7423 13.6723 18.9514C13.8764 19.1606 14.1515 19.2827 14.4414 19.2929ZM14.4414 17.8677C14.5199 17.8677 14.5951 17.8993 14.6506 17.9556C14.706 18.0119 14.7372 18.0882 14.7372 18.1678C14.7372 18.2474 14.706 18.3237 14.6506 18.3799C14.5951 18.4362 14.5199 18.4678 14.4414 18.4678C14.3624 18.4678 14.2866 18.4364 14.2302 18.3803C14.1738 18.3242 14.1414 18.2479 14.1399 18.1678C14.1399 18.1279 14.1478 18.0884 14.163 18.0516C14.1782 18.0148 14.2005 17.9815 14.2286 17.9535C14.2566 17.9256 14.2899 17.9036 14.3265 17.8889C14.363 17.8742 14.4021 17.867 14.4414 17.8677Z"
                fill="#407BFF" />
            <path
                d="M16.7851 9.98001C17.0101 9.98001 17.23 9.91233 17.4171 9.78552C17.6042 9.65872 17.75 9.47848 17.8361 9.26761C17.9222 9.05674 17.9448 8.82471 17.9009 8.60085C17.857 8.37699 17.7486 8.17136 17.5895 8.00997C17.4304 7.84858 17.2277 7.73867 17.007 7.69414C16.7863 7.64961 16.5576 7.67247 16.3497 7.75981C16.1419 7.84716 15.9642 7.99507 15.8392 8.18485C15.7142 8.37463 15.6475 8.59774 15.6475 8.82599C15.6475 9.13205 15.7673 9.42558 15.9807 9.642C16.194 9.85843 16.4834 9.98001 16.7851 9.98001ZM16.7851 8.55479C16.8291 8.54204 16.8754 8.53982 16.9205 8.54832C16.9655 8.55682 17.0079 8.5758 17.0445 8.60376C17.081 8.63173 17.1107 8.66792 17.1311 8.70949C17.1515 8.75105 17.1621 8.79686 17.1621 8.8433C17.1621 8.88974 17.1515 8.93554 17.1311 8.97711C17.1107 9.01868 17.081 9.05487 17.0445 9.08283C17.0079 9.1108 16.9655 9.12978 16.9205 9.13828C16.8754 9.14678 16.8291 9.14456 16.7851 9.1318C16.7411 9.14456 16.6947 9.14678 16.6497 9.13828C16.6047 9.12978 16.5623 9.1108 16.5257 9.08283C16.4892 9.05487 16.4595 9.01868 16.4391 8.97711C16.4187 8.93554 16.4081 8.88974 16.4081 8.8433C16.4081 8.79686 16.4187 8.75105 16.4391 8.70949C16.4595 8.66792 16.4892 8.63173 16.5257 8.60376C16.5623 8.5758 16.6047 8.55682 16.6497 8.54832C16.6947 8.53982 16.7411 8.54204 16.7851 8.55479Z"
                fill="#407BFF" />
            <path
                d="M5.66464 27.5904C5.61362 27.6142 5.56798 27.6485 5.53056 27.691C5.49314 27.7335 5.46475 27.7834 5.44714 27.8375C5.42954 27.8916 5.4231 27.9488 5.42822 28.0056C5.43335 28.0623 5.44993 28.1174 5.47693 28.1674C5.51189 28.2348 5.56421 28.2913 5.62831 28.3309C5.69242 28.3705 5.76591 28.3918 5.84097 28.3924C5.90399 28.3942 5.96647 28.3803 6.02299 28.352C7.76094 27.4488 9.68445 26.9744 11.6372 26.9672C13.7037 26.9977 15.7414 27.4634 17.6211 28.3347C17.6955 28.3741 17.78 28.3894 17.8632 28.3785C17.9464 28.3675 18.0243 28.331 18.0863 28.2737C18.1484 28.2164 18.1916 28.1412 18.2101 28.0582C18.2286 27.9752 18.2216 27.8884 18.1899 27.8096C18.1499 27.7073 18.0724 27.6246 17.9738 27.5788C15.9837 26.6554 13.8254 26.164 11.6372 26.1363C9.56136 26.1381 7.51519 26.6363 5.66464 27.5904Z"
                fill="#407BFF" />
        </symbol>
    </defs>
</svg>